<svg id="visual" viewBox="0 0 1080 1920" width="1080" height="1920" xmlns="http://www.w3.org/2000/svg" xmlns:xlink="http://www.w3.org/1999/xlink" version="1.1"><rect x="0" y="0" width="1080" height="1920" fill="#000b13"></rect><path d="M0 1165L25.7 1191.2C51.3 1217.3 102.7 1269.7 154.2 1291.7C205.7 1313.7 257.3 1305.3 308.8 1312.8C360.3 1320.3 411.7 1343.7 463 1353.5C514.3 1363.3 565.7 1359.7 617 1338.7C668.3 1317.7 719.7 1279.3 771.2 1251C822.7 1222.7 874.3 1204.3 925.8 1198.7C977.3 1193 1028.7 1200 1054.3 1203.5L1080 1207L1080 1921L1054.3 1921C1028.7 1921 977.3 1921 925.8 1921C874.3 1921 822.7 1921 771.2 1921C719.7 1921 668.3 1921 617 1921C565.7 1921 514.3 1921 463 1921C411.7 1921 360.3 1921 308.8 1921C257.3 1921 205.7 1921 154.2 1921C102.7 1921 51.3 1921 25.7 1921L0 1921Z" fill="#2a0816"></path><path d="M0 1463L25.7 1461.8C51.3 1460.7 102.7 1458.3 154.2 1425.8C205.7 1393.3 257.3 1330.7 308.8 1331.8C360.3 1333 411.7 1398 463 1427.8C514.3 1457.7 565.7 1452.3 617 1449.8C668.3 1447.3 719.7 1447.7 771.2 1455.7C822.7 1463.7 874.3 1479.3 925.8 1482.5C977.3 1485.7 1028.7 1476.3 1054.3 1471.7L1080 1467L1080 1921L1054.3 1921C1028.7 1921 977.3 1921 925.8 1921C874.3 1921 822.7 1921 771.2 1921C719.7 1921 668.3 1921 617 1921C565.7 1921 514.3 1921 463 1921C411.7 1921 360.3 1921 308.8 1921C257.3 1921 205.7 1921 154.2 1921C102.7 1921 51.3 1921 25.7 1921L0 1921Z" fill="#591e2f"></path><path d="M0 1553L25.7 1547C51.3 1541 102.7 1529 154.2 1509.5C205.7 1490 257.3 1463 308.8 1481.2C360.3 1499.3 411.7 1562.7 463 1557.5C514.3 1552.3 565.7 1478.7 617 1463.8C668.3 1449 719.7 1493 771.2 1516.2C822.7 1539.3 874.3 1541.7 925.8 1536.5C977.3 1531.3 1028.7 1518.7 1054.3 1512.3L1080 1506L1080 1921L1054.3 1921C1028.7 1921 977.3 1921 925.8 1921C874.3 1921 822.7 1921 771.2 1921C719.7 1921 668.3 1921 617 1921C565.7 1921 514.3 1921 463 1921C411.7 1921 360.3 1921 308.8 1921C257.3 1921 205.7 1921 154.2 1921C102.7 1921 51.3 1921 25.7 1921L0 1921Z" fill="#8d3645"></path><path d="M0 1540L25.7 1543.3C51.3 1546.7 102.7 1553.3 154.2 1583.7C205.7 1614 257.3 1668 308.8 1673.3C360.3 1678.7 411.7 1635.3 463 1629.3C514.3 1623.3 565.7 1654.7 617 1653.3C668.3 1652 719.7 1618 771.2 1594.7C822.7 1571.3 874.3 1558.7 925.8 1559C977.3 1559.3 1028.7 1572.7 1054.3 1579.3L1080 1586L1080 1921L1054.3 1921C1028.7 1921 977.3 1921 925.8 1921C874.3 1921 822.7 1921 771.2 1921C719.7 1921 668.3 1921 617 1921C565.7 1921 514.3 1921 463 1921C411.7 1921 360.3 1921 308.8 1921C257.3 1921 205.7 1921 154.2 1921C102.7 1921 51.3 1921 25.7 1921L0 1921Z" fill="#c35258"></path><path d="M0 1774L25.7 1783C51.3 1792 102.7 1810 154.2 1800.5C205.7 1791 257.3 1754 308.8 1752.8C360.3 1751.7 411.7 1786.3 463 1796.8C514.3 1807.3 565.7 1793.7 617 1795.3C668.3 1797 719.7 1814 771.2 1816.8C822.7 1819.7 874.3 1808.3 925.8 1803.7C977.3 1799 1028.7 1801 1054.3 1802L1080 1803L1080 1921L1054.3 1921C1028.7 1921 977.3 1921 925.8 1921C874.3 1921 822.7 1921 771.2 1921C719.7 1921 668.3 1921 617 1921C565.7 1921 514.3 1921 463 1921C411.7 1921 360.3 1921 308.8 1921C257.3 1921 205.7 1921 154.2 1921C102.7 1921 51.3 1921 25.7 1921L0 1921Z" fill="#fa7268"></path></svg>